<?xml version="1.0" encoding="UTF-8"?> <svg xmlns="http://www.w3.org/2000/svg" xmlns:xlink="http://www.w3.org/1999/xlink" version="1.1" id="Capa_1" x="0px" y="0px" viewBox="0 0 707.74 174.63" style="enable-background:new 0 0 707.74 174.63;" xml:space="preserve"> <style type="text/css"> .st0{fill:#CE151A;} .st1{fill:#010202;} </style> <g> <path class="st0" d="M55.18,68.52l1.66,1.17c0,0-13.26,19.5-30.42,19.5c-21.16,0-18.23-24.96,3.61-29.83 C11.51,54.28,18.62,30.1,41.34,30.1c10.63,0,14.92,11.6,7.41,17.74c0,0.1-0.1,0.19-0.19,0.29c-0.98,0.68-1.95,1.07-2.93,1.07 c-3.31,0-6.24-3.71-4.09-7.21c2.44-4.09,1.95-8.38-2.05-8.38c-8,0-12.97,19.4-5.36,23.89c2.34-0.78,5.17-1.56,6.73-1.56 c4.39,0,3.41,6.04-0.98,6.04c-3.41,0-6.24-0.88-6.63-0.98c-4.68,1.66-7.9,5.95-8.68,10.73c-0.88,5.36,2.24,10.72,8.58,10.72 C45.14,82.46,55.18,68.52,55.18,68.52z"></path> <path class="st0" d="M81.8,74.27l1.95,0.59c0,0-7.02,11.02-18.62,13.75c-1.36,0.29-2.83,0.49-4.48,0.58h-0.68 c-0.78,0-1.27,0-1.66-0.1c-12.48-1.46-13.55-18.82-5.26-21.45c2.24-6.04,5.07-15.01,6.63-23.89h9.85 c-1.76,10.24,7.7,19.3,6.92,30.52c-0.19,2.24-0.68,4.29-1.46,6.04C79.85,77.68,81.8,74.27,81.8,74.27z M59.67,84.41 c5.07,0,7.7-4.58,6.92-11.5c-0.68-6.43-4.68-10.82-6.43-17.55c-1.27,4.88-2.63,8.87-3.71,12.09c3.02,0.49,5.27,3.12,5.27,6.24 c0,3.51-2.83,6.34-6.34,6.34c-1.07,0-2.05-0.2-2.92-0.68C53.14,82.07,55.77,84.41,59.67,84.41z"></path> <path class="st0" d="M146.83,74.27l1.85,0.59c0,0-6.04,14.33-17.06,14.33c-6.92,0-8.29-5.07-7.12-12.97l5.17-32.47h11.02 l-4.97,32.17c-0.39,3.8,0.58,5.17,3.51,5.17C143.52,81.09,146.83,74.27,146.83,74.27z M130.65,32.44c0.49-3.51,3.8-6.43,7.41-6.43 c3.51,0,5.95,2.93,5.46,6.43c-0.58,3.61-4,6.43-7.51,6.43C132.4,38.88,130.06,36.05,130.65,32.44z"></path> <path class="st0" d="M158.92,74.56l-2.24,14.04h-11.11l7.12-44.85h11.02l-2.34,14.92c5.75-12.58,15.11-25.06,23.79-25.06 c3.61,0,6.34,3.9,0.58,9.85C174.03,36.15,161.36,58.96,158.92,74.56z M194.6,74.27l1.95,0.59c0,0-6.14,14.33-17.16,14.33 c-6.92,0-8.29-5.07-7.02-12.97l4.09-26.52h11.11l-4.09,26.23c-0.39,3.8,0.58,5.17,3.51,5.17C191.29,81.09,194.6,74.27,194.6,74.27z "></path> <path class="st0" d="M219.37,74.27l1.85,0.59c0,0-7.9,14.33-19.6,14.33c-7.02,0-9.55-5.07-8.19-12.97l4.49-28.96h-4.78l0.58-3.51 c10.14-3.51,12.38-13.65,12.38-13.65h5.56l-2.15,13.65h7.02l-0.58,3.51h-6.92l-4.39,28.08c-0.29,4.19,1.66,5.75,4.58,5.75 C214.3,81.09,219.37,74.27,219.37,74.27z"></path> <path class="st0" d="M248.03,89.19c-5.56,0-7.6-3.31-7.51-8.58c-2.53,3.9-6.82,8.58-13.06,8.58c-7.02,0-11.89-5.56-9.85-18.82 l4.29-26.62h11.02l-3.9,24.37c-1.56,10.14,1.46,12.97,4.78,12.97c3.51,0,6.34-4.39,7.31-6.04l4.97-31.3h11.02l-4.78,30.22 c-0.78,5.26,0,7.12,3.31,7.12c4.29,0,7.6-6.83,7.6-6.83l1.85,0.59C265.09,74.85,259.05,89.19,248.03,89.19z"></path> <path class="st0" d="M293.95,71.05c-3.51,9.65-10.72,18.13-20.47,18.13c-9.65,0-13.36-9.16-12.28-18.82 c2.05-18.13,14.92-27.2,23.2-27.2c10.92,0,13.65,12.38,10.63,24.37c0.1,0,0.29,0,0.49,0c4.87,0,8.29-3.41,8.29-3.41l0.98,1.56 C300.68,69.59,296.97,70.95,293.95,71.05z M288,69.59c-0.59-0.29-1.07-0.68-1.37-0.98c-0.29-0.19-0.39-0.39-0.58-0.59 c-0.68-0.88-0.98-2.05-0.78-3.22c0.39-2.34,2.24-4.29,4.58-4.78c0.49-6.82-0.78-12.48-4.97-12.48c-4.88,0-10.33,8.78-11.8,18.62 c-1.27,8-0.88,17.45,4.58,17.45C281.96,83.63,285.76,77.1,288,69.59z"></path> <path class="st0" d="M330.51,74.27l1.95,0.59c0,0-7.02,11.02-18.62,13.75c-1.36,0.29-2.83,0.49-4.48,0.58h-0.68 c-0.78,0-1.27,0-1.66-0.1c-12.48-1.46-13.55-18.82-5.26-21.45c2.24-6.04,5.07-15.01,6.63-23.89h9.85 c-1.76,10.24,7.7,19.3,6.92,30.52c-0.19,2.24-0.68,4.29-1.46,6.04C328.56,77.68,330.51,74.27,330.51,74.27z M308.38,84.41 c5.07,0,7.7-4.58,6.92-11.5c-0.68-6.43-4.68-10.82-6.43-17.55c-1.27,4.88-2.63,8.87-3.7,12.09c3.02,0.49,5.26,3.12,5.26,6.24 c0,3.51-2.83,6.34-6.34,6.34c-1.07,0-2.05-0.2-2.92-0.68C301.85,82.07,304.48,84.41,308.38,84.41z"></path> <path class="st0" d="M362.3,71.05c-3.51,9.65-10.72,18.13-20.47,18.13c-9.65,0-13.36-9.16-12.28-18.82 c2.05-18.13,14.92-27.2,23.2-27.2c10.92,0,13.65,12.38,10.63,24.37c0.1,0,0.29,0,0.49,0c4.87,0,8.29-3.41,8.29-3.41l0.98,1.56 C369.02,69.59,365.32,70.95,362.3,71.05z M356.35,69.59c-0.59-0.29-1.07-0.68-1.37-0.98c-0.29-0.19-0.39-0.39-0.58-0.59 c-0.68-0.88-0.98-2.05-0.78-3.22c0.39-2.34,2.24-4.29,4.58-4.78c0.49-6.82-0.78-12.48-4.97-12.48c-4.88,0-10.33,8.78-11.8,18.62 c-1.27,8-0.88,17.45,4.58,17.45C350.3,83.63,354.11,77.1,356.35,69.59z"></path> <path class="st0" d="M398.86,74.27l1.95,0.59c0,0-7.02,11.02-18.62,13.75c-1.36,0.29-2.83,0.49-4.48,0.58h-0.68 c-0.78,0-1.27,0-1.66-0.1c-12.48-1.46-13.55-18.82-5.26-21.45c2.24-6.04,5.07-15.01,6.63-23.89h9.85 c-1.76,10.24,7.7,19.3,6.92,30.52c-0.19,2.24-0.68,4.29-1.46,6.04C396.91,77.68,398.86,74.27,398.86,74.27z M376.73,84.41 c5.07,0,7.7-4.58,6.92-11.5c-0.68-6.43-4.68-10.82-6.43-17.55c-1.27,4.88-2.63,8.87-3.7,12.09c3.02,0.49,5.26,3.12,5.26,6.24 c0,3.51-2.83,6.34-6.34,6.34c-1.07,0-2.05-0.2-2.92-0.68C370.2,82.07,372.83,84.41,376.73,84.41z"></path> <path d="M463.3,74.27l1.85,0.59c0,0-6.04,14.33-17.06,14.33c-5.56,0-7.6-3.31-7.51-8.58c-2.54,3.9-6.83,8.58-13.06,8.58 c-7.02,0-11.89-5.56-9.85-18.82c2.93-18.13,15.7-26.52,26.71-27.2c0.1,0,0.29,0,0.49,0h0.88c0.19,0,0.29,0,0.49,0l3.02-19.21h11.02 l-8.19,51.97c-0.29,3.8,0.68,5.17,3.51,5.17C459.99,81.09,463.3,74.27,463.3,74.27z M441.17,75.05l3.61-22.72 c0-0.1,0.68-4.78-3.02-4.78c-4.48,0-10.63,7.7-12.67,20.57c-1.56,10.14,1.46,12.97,4.78,12.97 C437.37,81.09,440.2,76.71,441.17,75.05z"></path> <path d="M497.52,74.27l1.76,0.59c0,0-8.87,14.33-24.47,14.33c-9.56,0-15.4-5.56-13.26-18.82c2.83-18.13,16.28-27.2,24.28-27.2 c16.28,0,9.26,25.35-12.97,25.35c-1.56,9.94,1.85,15.11,8.87,15.11C491.29,83.63,497.52,74.27,497.52,74.27z M473.25,65.98 c13.16-1.36,18.04-18.43,12.28-18.43C481.44,47.55,475.59,54.38,473.25,65.98z"></path> <path d="M520.34,74.85c0,0-6.04,14.33-17.06,14.33c-7.02,0-8.29-5.07-7.12-12.97l8.29-52.26h11.02l-8.19,51.97 c-0.29,3.8,0.68,5.17,3.51,5.17c4.39,0,7.7-6.83,7.7-6.83L520.34,74.85z"></path> <path class="st0" d="M584,48.72c-2.05,13.16-15.11,19.89-25.54,21.74l-2.83,18.13h-11.7l7.21-45.63c0.39-2.73,2.93-4.88,5.75-4.88 h6.63l-4.39,28.08c6.43-2.24,11.7-7.9,13.26-17.84c1.66-10.24-3.51-14.72-11.02-14.72c-12.19,0-16.57,7.8-16.38,16.77 c0,0-9.26,1.36-8.19-5.26c1.07-6.63,14.33-15.01,28.96-15.01C577.57,30.1,585.95,36.73,584,48.72z"></path> <path class="st0" d="M618.42,74.27l1.76,0.59c0,0-8.87,14.33-24.47,14.33c-9.56,0-15.4-5.56-13.26-18.82 c2.83-18.13,16.28-27.2,24.28-27.2c16.28,0,9.26,25.35-12.97,25.35c-1.56,9.94,1.85,15.11,8.87,15.11 C612.18,83.63,618.42,74.27,618.42,74.27z M594.14,65.98c13.16-1.36,18.04-18.43,12.28-18.43 C602.33,47.55,596.48,54.38,594.14,65.98z"></path> <path class="st0" d="M647.38,53.11c-8.97-7.02-15.99,8.87-18.04,21.45l-2.14,14.04h-11.11l7.12-44.85h11.02l-2.24,14.62 c4.09-8.48,9.85-15.21,14.72-15.21C650.3,43.17,653.13,47.16,647.38,53.11z"></path> <g> <g> <path class="st0" d="M216.22,157.19c-0.39,0.25-0.79,0.34-1.23,0.34c-0.34,0-0.64-0.05-0.98-0.2s-0.69-0.39-0.93-0.69 c-0.29-0.44-0.49-0.98-0.54-1.67c-0.15-1.82,0.78-4.61,2.7-8.44c0.74-1.42,1.57-2.89,2.5-4.51c0.74-1.18,1.47-2.36,2.21-3.48 c0.44-0.64,0.88-1.32,1.32-2.01c0.74-4.37,1.28-8.69,1.72-12.95c0.05-0.54,0.39-0.79,0.93-0.74c0.59,0.05,0.83,0.34,0.79,0.93 c-0.05,0.15-0.05,0.34-0.05,0.49c-0.05,0.25-0.05,0.54-0.1,0.78c-0.05,0.69-0.15,1.42-0.25,2.16c-0.25,2.11-0.49,4.17-0.83,6.23 c3.48-4.66,6.13-7.56,7.95-8.68l0.15-0.1l0.2-0.1c0.2-0.1,0.39-0.15,0.54-0.2c0.49-0.15,0.93-0.15,1.28,0.1 c0.69,0.44,1.18,1.08,1.47,1.91c0.34,1.13,0.29,2.55-0.15,4.32c-0.44,1.62-1.13,3.34-2.11,5.15c3.97-1.23,6.72-3.58,8.24-7.02 c0.25-0.54,0.59-0.69,1.13-0.44c0.54,0.25,0.69,0.59,0.44,1.13c-1.13,2.6-2.85,4.61-5.15,6.08c-1.57,0.98-3.53,1.77-5.94,2.36 c-1.52,2.21-2.85,3.39-4.02,3.43c-0.15,0-0.25,0-0.39-0.05c-0.2-0.05-0.34-0.1-0.49-0.15c-0.44-0.25-0.74-0.64-0.98-1.18 c-0.2-0.64-0.15-1.18,0.1-1.67c0.34-0.64,1.67-1.23,3.93-1.72l0.83-0.2c0.93-1.47,1.72-3.04,2.31-4.71c1.08-3.09,1.08-5,0-5.74 c-0.59,0.1-1.72,1.03-3.34,2.8c-1.91,2.06-3.97,4.76-6.28,8.05l-0.25,0.34c-0.83,5.1-1.77,9.27-2.75,12.51 C218.97,153.86,217.64,156.36,216.22,157.19z M215.39,155.72c1.72-1.03,3.43-5.99,5.15-14.97c-3.58,5.64-5.64,9.96-6.18,12.86 c-0.05,0.2-0.05,0.39-0.1,0.59v0.64c0.05,0.54,0.2,0.83,0.44,0.93C214.94,155.87,215.14,155.87,215.39,155.72z M227.41,139.68 c0.29,0.05,0.78-0.29,1.52-1.13c-1.03,0.25-1.62,0.44-1.72,0.64v0.05c0,0.05,0,0.15,0.05,0.2c0.05,0.1,0.05,0.15,0.1,0.2 L227.41,139.68z"></path> <path class="st0" d="M246.94,142.23c-0.54-0.05-1.03-0.34-1.37-0.83c-0.64-0.93-0.69-2.8-0.2-5.64c0.15-1.13,0.39-2.31,0.74-3.63 c0.25-1.03,0.54-2.06,0.88-3.19c-2.31-0.64-4.07-1.86-5.3-3.73c-1.03-1.62-1.42-3.19-1.18-4.71c0.15-1.03,0.54-1.77,1.18-2.31 s1.42-0.78,2.36-0.69c0.69,0.05,1.18,0.39,1.52,0.98l0.15,0.2c0.05,0.15,0.05,0.25,0.1,0.34c0.1,0.34,0.15,0.78,0.1,1.23 c-0.05,1.33-0.59,3.09-1.57,5.4c1.08,0.93,2.36,1.57,3.88,1.86c0.25,0.05,0.44,0.15,0.59,0.39c0.15,0.2,0.15,0.44,0.1,0.69 c-2.11,6.62-2.75,10.6-1.91,11.87c0.05,0.05,0.05,0.05,0.1,0.05c0.54-0.15,1.57-1.47,3.09-3.93c1.42-2.31,2.85-4.86,4.22-7.7 c0.25-0.49,0.59-0.64,1.13-0.39c0.54,0.25,0.64,0.64,0.39,1.18v0.05l-0.1,0.1c-0.05,0.15-0.1,0.25-0.2,0.39 c-0.25,0.44-0.44,0.93-0.69,1.42c-0.83,1.52-1.57,2.94-2.31,4.22c-2.5,4.27-4.32,6.38-5.54,6.38H246.94z M243.65,119.22 c-0.44,0-0.83,0.15-1.08,0.49c-0.2,0.25-0.29,0.59-0.34,1.03c-0.2,1.13,0.1,2.26,0.88,3.48c0.64-1.57,0.98-2.85,1.08-3.78 c0.05-0.34,0.05-0.59,0-0.79l-0.05-0.2l-0.05-0.15l-0.05-0.05c-0.05-0.05-0.1-0.05-0.2-0.05H243.65z"></path> <path class="st0" d="M260.87,136.88c-1.13,1.32-2.4,2.01-3.78,2.01c-0.64,0-1.23-0.15-1.86-0.39c-0.98-0.44-1.62-1.32-1.91-2.55 c-0.34-1.47-0.2-3.24,0.44-5.25c0.64-2.06,1.67-3.97,3.09-5.74c0.34-0.44,0.74-0.49,1.18-0.15l0.2,0.2 c0.29-1.32,1.08-2.16,2.36-2.5c1.23-0.39,2.21-0.05,2.9,0.98c1.03,1.62,1.08,4.22,0.15,7.75c0.79,0.15,1.52-0.05,2.26-0.64 c0.54-0.44,1.08-1.13,1.57-1.96c0.25-0.54,0.64-0.64,1.18-0.34c0.49,0.29,0.59,0.69,0.29,1.18c-0.93,1.62-1.96,2.65-3.19,3.19 c-0.49,0.2-0.98,0.29-1.47,0.34c-0.39,0.05-0.78,0-1.13-0.1C262.49,134.52,261.75,135.85,260.87,136.88z M258.12,126.09 c-1.23,1.52-2.11,3.19-2.7,5.01c-0.59,1.82-0.74,3.29-0.49,4.47c0.2,0.74,0.54,1.18,1.03,1.37l0.2,0.1l0.29,0.1 c0.29,0.05,0.59,0.1,0.83,0.1c0.79-0.1,1.57-0.59,2.31-1.42c0.74-0.93,1.42-2.11,1.96-3.58c-1.03-0.64-1.82-1.57-2.45-2.75 c-0.64-1.13-0.98-2.26-0.98-3.34V126.09z M262.05,124.42c-0.15-0.25-0.34-0.34-0.59-0.34c-0.15,0-0.25,0-0.39,0.05 c-0.83,0.25-1.28,0.93-1.23,1.96c0.05,1.77,0.78,3.24,2.21,4.42C262.78,127.61,262.78,125.55,262.05,124.42z"></path> <path class="st0" d="M281.04,142.77c-0.49,0-0.93-0.1-1.32-0.34c-0.54-0.34-1.03-0.83-1.37-1.57c-1.08-2.11-1.37-5.84-0.93-11.14 c-3.97,4.37-7.07,6.53-9.22,6.53c-0.25,0-0.44,0-0.59-0.05c-0.15-0.05-0.29-0.1-0.44-0.15c-0.15-0.1-0.29-0.2-0.44-0.34 c-0.34-0.39-0.54-0.93-0.59-1.57c-0.15-1.57,0.44-3.53,1.67-5.94c1.33-2.45,2.7-3.97,4.12-4.61c1.28-0.54,2.36-0.29,3.29,0.74 c0.39,0.44,0.39,0.83-0.05,1.23c-0.44,0.39-0.83,0.39-1.23-0.05c-0.34-0.44-0.79-0.59-1.33-0.34c-1.08,0.44-2.16,1.77-3.29,3.93 c-1.08,2.06-1.57,3.73-1.47,4.96c0,0.15,0,0.25,0.05,0.34c0.05,0.1,0.05,0.15,0.1,0.15c0.64,0.15,1.77-0.34,3.29-1.47 c1.77-1.33,3.73-3.19,5.94-5.64l0.54-0.69c0.1-0.69,0.2-1.37,0.29-2.11c0.1-0.54,0.2-1.08,0.29-1.57 c0.64-3.48,1.42-6.62,2.4-9.52c1.13-3.48,2.36-5.79,3.58-7.02c0.64-0.59,1.23-0.93,1.86-0.98c0.25-0.05,0.49,0,0.74,0.05 c0.2,0.05,0.39,0.15,0.54,0.2c0.88,0.49,1.42,1.23,1.67,2.26c0.29,1.37,0,3.19-0.83,5.4c-1.62,4.17-4.56,8.83-8.88,14.03 c-0.83,6.23-0.69,10.45,0.44,12.66c0.25,0.44,0.49,0.74,0.83,0.88c0.1,0.05,0.2,0.1,0.34,0.1h0.15l0.1-0.05 c0.74-0.1,1.91-1.47,3.63-4.07c1.62-2.4,3.14-5.15,4.66-8.24c0.25-0.49,0.64-0.59,1.13-0.34c0.54,0.25,0.64,0.59,0.39,1.13 c-0.25,0.44-0.44,0.93-0.69,1.37c-0.34,0.64-0.64,1.28-0.98,1.86c-0.88,1.62-1.72,3.04-2.5,4.32c-2.26,3.58-4.02,5.45-5.35,5.69 H281.04z M286.38,107.24c-0.25,0-0.49,0.15-0.83,0.49c-2.21,2.16-4.12,7.61-5.64,16.34c3.29-4.17,5.54-7.95,6.82-11.24 c0.15-0.54,0.29-1.03,0.44-1.47c0.2-0.59,0.29-1.13,0.34-1.62c0.15-1.28-0.15-2.11-0.83-2.45l-0.15-0.05H286.38z"></path> <path class="st0" d="M300.51,144.68c-0.25,0.05-0.44,0.1-0.64,0.1c-0.44,0-0.79-0.15-1.13-0.44c-0.54-0.49-0.83-1.42-0.93-2.75 c-0.15-1.87,0.1-4.71,0.74-8.54c0.25-1.18,0.44-2.36,0.64-3.48c-0.59,0.98-1.13,1.86-1.62,2.65c-2.06,3.14-3.78,5.2-5.1,6.18 c-0.98,0.69-1.82,0.88-2.55,0.54c-1.47-0.69-1.86-2.8-1.13-6.28c0.25-1.23,0.64-2.6,1.18-4.12c0.2-0.59,0.39-1.18,0.64-1.77 c0.15-0.44,0.34-0.83,0.54-1.28c0.25-0.54,0.59-0.69,1.13-0.49c0.54,0.25,0.69,0.59,0.44,1.13c-1.08,2.55-1.86,4.96-2.31,7.21 c-0.49,2.4-0.44,3.73,0.2,4.02h0.1c0.05,0,0.15,0,0.2-0.05c0.25-0.05,0.54-0.25,0.88-0.54c1.13-0.98,2.6-2.8,4.37-5.5 c0.93-1.52,1.96-3.19,2.99-5c0.34-0.59,0.69-1.18,0.98-1.72c0.1-0.15,0.2-0.34,0.25-0.49l0.1-0.15v-0.05 c0.25-0.44,0.59-0.54,1.08-0.39c0.44,0.2,0.64,0.54,0.49,1.03v0.05l-0.05,0.15c-0.05,0.15-0.05,0.34-0.1,0.59 c-0.15,0.64-0.34,1.28-0.49,2.01c-0.44,2.21-0.83,4.27-1.18,6.18c-0.54,3.43-0.78,6.03-0.69,7.75c0,0.59,0.05,1.03,0.15,1.37 c0.05,0.15,0.1,0.25,0.15,0.29l0.05,0.1v0.05l0.1-0.05c0.54-0.25,1.52-1.87,3.04-4.91c1.42-2.8,2.8-5.89,4.17-9.32 c0.2-0.54,0.54-0.69,1.08-0.49c0.54,0.2,0.69,0.59,0.49,1.13c-0.54,1.42-1.13,2.75-1.72,4.07c-0.78,1.82-1.52,3.48-2.21,4.91 C302.92,142.28,301.5,144.34,300.51,144.68z"></path> <path class="st0" d="M309.44,139.09c-0.25,0-0.44-0.05-0.69-0.1c-0.25-0.05-0.49-0.2-0.74-0.39c-0.59-0.44-0.98-1.18-1.23-2.21 c-0.44-2.11-0.2-4.81,0.74-8c0.93-3.39,2.16-5.35,3.68-5.99c0.25-0.05,0.44-0.1,0.64-0.15c0.29-0.05,0.59,0,0.83,0.05 c0.69,0.2,1.32,0.74,1.86,1.62c0.29,0.49,0.2,0.88-0.25,1.18c-0.49,0.29-0.88,0.2-1.18-0.25c-0.29-0.44-0.59-0.74-0.83-0.83 c-0.1-0.05-0.2-0.1-0.25-0.05h-0.1l-0.1,0.05c-1.03,0.39-1.91,2.01-2.7,4.91c-0.83,2.89-1.03,5.25-0.64,7.11 c0.15,0.88,0.49,1.33,0.93,1.33c1.28,0,2.8-1.13,4.61-3.43c0.64-0.83,1.33-1.82,1.96-2.85c0.54-0.83,0.93-1.57,1.28-2.26 c0.25-0.49,0.64-0.59,1.13-0.34c0.54,0.25,0.64,0.59,0.39,1.13l-0.05,0.1l-0.1,0.15c-0.05,0.15-0.15,0.29-0.2,0.44 c-0.25,0.39-0.44,0.79-0.69,1.18c-0.69,1.18-1.37,2.26-2.11,3.19c-2.21,2.89-4.27,4.37-6.18,4.42H309.44z"></path> <path class="st0" d="M330.1,128.39c0.54,0.2,0.69,0.59,0.49,1.13c-0.05,0.15-0.15,0.29-0.2,0.49c-0.1,0.2-0.2,0.39-0.29,0.64 c-0.25,0.59-0.49,1.18-0.74,1.72c-0.74,1.57-1.47,2.99-2.21,4.22c-2.16,3.63-4.12,5.45-5.84,5.45h-0.25 c-1.23-0.15-2.16-0.74-2.85-1.77c-1.23-1.81-1.57-5.2-1.03-10.16c0.2-1.91,0.54-4.02,0.98-6.33c0.34-1.82,0.78-3.68,1.28-5.59 c-1.03-0.15-1.86-0.25-2.55-0.2c-0.54,0.05-1.13,0.29-1.67,0.74c-0.2,0.15-0.34,0.29-0.49,0.49c-0.05,0.05-0.1,0.1-0.15,0.15 l-0.05,0.05c-0.15,0.25-0.39,0.39-0.69,0.39c-0.2,0-0.34-0.05-0.49-0.2c-0.44-0.34-0.54-0.74-0.25-1.18l0.05-0.05l0.05-0.05 c0.05-0.1,0.15-0.2,0.2-0.25c0.25-0.25,0.49-0.49,0.78-0.74c0.83-0.64,1.67-1.03,2.6-1.08c0.83-0.05,1.86,0.05,3.09,0.25 c0.2-0.74,0.39-1.47,0.59-2.16c0.05-0.2,0.15-0.39,0.2-0.64l0.05-0.2l0.05-0.1c0.15-0.54,0.54-0.74,1.08-0.59 c0.54,0.15,0.69,0.54,0.54,1.08c-0.25,0.83-0.54,1.82-0.83,2.9l0.15,0.05l0.88,0.2l0.88,0.15c0.59,0.05,0.98,0.05,1.23,0 c0.74-0.25,1.37-0.64,1.86-1.23c0.15-0.2,0.29-0.39,0.39-0.59c0.05-0.05,0.05-0.15,0.1-0.2l0.05-0.05v-0.05 c0.2-0.54,0.54-0.69,1.08-0.49c0.54,0.25,0.69,0.59,0.49,1.13l-0.05,0.1c-0.05,0.1-0.1,0.2-0.15,0.29 c-0.15,0.29-0.34,0.59-0.54,0.88c-0.74,0.88-1.62,1.47-2.7,1.82c-0.64,0.2-1.91,0.1-3.88-0.29l-0.25-0.05 c-1.13,4.46-1.86,8.39-2.26,11.78c-0.49,4.51-0.25,7.56,0.79,9.08c0.39,0.59,0.93,0.93,1.57,1.03c0.98,0.1,2.31-1.18,3.97-3.88 c1.42-2.31,2.7-4.81,3.78-7.61C329.22,128.34,329.56,128.2,330.1,128.39z"></path> <path class="st0" d="M335.45,136.88c-1.13,1.32-2.4,2.01-3.78,2.01c-0.64,0-1.23-0.15-1.86-0.39c-0.98-0.44-1.62-1.32-1.91-2.55 c-0.34-1.47-0.2-3.24,0.44-5.25c0.64-2.06,1.67-3.97,3.09-5.74c0.34-0.44,0.74-0.49,1.18-0.15l0.2,0.2 c0.29-1.32,1.08-2.16,2.36-2.5c1.23-0.39,2.21-0.05,2.9,0.98c1.03,1.62,1.08,4.22,0.15,7.75c0.79,0.15,1.52-0.05,2.26-0.64 c0.54-0.44,1.08-1.13,1.57-1.96c0.25-0.54,0.64-0.64,1.18-0.34c0.49,0.29,0.59,0.69,0.29,1.18c-0.93,1.62-1.96,2.65-3.19,3.19 c-0.49,0.2-0.98,0.29-1.47,0.34c-0.39,0.05-0.78,0-1.13-0.1C337.07,134.52,336.33,135.85,335.45,136.88z M332.7,126.09 c-1.23,1.52-2.11,3.19-2.7,5.01c-0.59,1.82-0.74,3.29-0.49,4.47c0.2,0.74,0.54,1.18,1.03,1.37l0.2,0.1l0.29,0.1 c0.29,0.05,0.59,0.1,0.83,0.1c0.79-0.1,1.57-0.59,2.31-1.42c0.74-0.93,1.42-2.11,1.96-3.58c-1.03-0.64-1.82-1.57-2.45-2.75 c-0.64-1.13-0.98-2.26-0.98-3.34V126.09z M336.63,124.42c-0.15-0.25-0.34-0.34-0.59-0.34c-0.15,0-0.25,0-0.39,0.05 c-0.83,0.25-1.28,0.93-1.23,1.96c0.05,1.77,0.78,3.24,2.21,4.42C337.36,127.61,337.36,125.55,336.63,124.42z"></path> <path class="st0" d="M342.37,144.34c-1.37-0.15-2.26-0.93-2.7-2.4c-0.54-1.91,0-3.48,1.67-4.76c0.74-0.54,1.82-1.23,3.14-1.96 c-0.34-1.23-0.88-2.5-1.52-3.83c-1.28-2.8-2.06-4.91-2.36-6.43c-0.39-2.21,0-3.93,1.13-5.15c1.03-1.18,2.16-1.82,3.34-1.96 c0.93-0.15,1.82,0.1,2.55,0.64c0.79,0.54,1.28,1.32,1.42,2.26c0.15,0.93,0,1.82-0.49,2.65c-0.29,0.49-0.69,0.59-1.18,0.29 c-0.49-0.29-0.59-0.69-0.29-1.18c0.29-0.49,0.39-0.98,0.29-1.52c-0.15-0.49-0.39-0.88-0.74-1.13c-0.44-0.34-0.98-0.44-1.57-0.29 c-0.69,0.15-1.37,0.59-2.06,1.37c-0.83,0.93-1.03,2.31-0.59,4.22c0.29,1.28,0.98,3.14,2.11,5.54c0.59,1.28,1.08,2.5,1.47,3.63 l0.2-0.1l1.82-0.98l1.77-1.03c1.13-0.69,2.01-1.42,2.7-2.21c0.25-0.25,0.44-0.44,0.59-0.69c0.05-0.05,0.05-0.15,0.1-0.2 l0.05-0.05v-0.05c0.25-0.49,0.64-0.64,1.13-0.39c0.54,0.25,0.69,0.64,0.44,1.13l-0.05,0.05l-0.05,0.1 c-0.05,0.05-0.1,0.15-0.15,0.25c-0.15,0.29-0.39,0.59-0.64,0.88c-0.83,0.93-1.91,1.82-3.24,2.6l-1.82,1.08l-1.82,1.03l-0.54,0.29 c0.74,2.99,0.64,5.25-0.39,6.72c-0.74,1.03-1.82,1.57-3.24,1.57H342.37z M344.72,141.79c0.64-0.98,0.74-2.6,0.25-4.91 c-1.08,0.64-1.91,1.18-2.55,1.67c-0.54,0.39-0.93,0.88-1.08,1.52c-0.15,0.49-0.15,0.98,0,1.42c0.2,0.69,0.59,1.08,1.18,1.13 C343.54,142.72,344.28,142.42,344.72,141.79z"></path> <path class="st1" d="M370.38,142.77c-0.74-0.05-1.28-0.29-1.67-0.64c-0.34-0.34-0.49-0.74-0.54-1.18 c-0.1-1.03,0.54-2.06,1.96-3.19c1.47-1.18,3.43-2.06,5.89-2.6l0.1-0.29c0.69-1.91,1.03-3.68,1.03-5.3 c0.05-1.52-0.25-2.45-0.78-2.89c-0.05-0.05-0.2-0.05-0.39,0c-0.2,0.05-0.44,0.1-0.69,0.25c-1.32,0.69-2.55,1.96-3.78,3.88 c-1.32,2.06-2.01,3.98-1.96,5.79c0,0.54-0.25,0.79-0.78,0.83c-0.54,0.05-0.83-0.2-0.93-0.74c-0.54-3.88,0-9.52,1.62-17.03 c1.72-8.1,3.73-12.76,6.04-14.03c1.03-0.54,1.96-0.44,2.9,0.29c1.08,0.88,1.67,2.06,1.72,3.53c0.15,2.7-1.37,6.28-4.56,10.84 c-1.08,1.52-2.26,3.04-3.58,4.61c-0.44,0.54-0.93,1.03-1.37,1.52c-0.15,0.15-0.29,0.34-0.44,0.49l-0.2,0.2l-0.1,0.15 c-0.15,1.23-0.29,2.4-0.34,3.53c1.42-2.6,3.09-4.42,5-5.4c0.64-0.34,1.23-0.49,1.77-0.44c0.44,0,0.78,0.1,1.08,0.34 c0.93,0.69,1.47,1.96,1.52,3.83c0.05,1.62-0.2,3.43-0.83,5.45c1.67-0.74,3.09-1.87,4.27-3.48c0.39-0.54,0.74-1.03,0.98-1.57 c0.1-0.15,0.2-0.34,0.25-0.49l0.05-0.15v-0.05c0.25-0.54,0.59-0.69,1.13-0.49c0.54,0.2,0.69,0.54,0.49,1.08v0.05l-0.05,0.05 c-0.05,0.05-0.05,0.15-0.1,0.25c-0.1,0.2-0.2,0.44-0.29,0.69c-0.39,0.74-0.83,1.42-1.37,2.11c-1.67,2.06-3.68,3.39-6.08,4.02 c-1.82,4.12-4.02,6.18-6.62,6.18H370.38z M370.48,141.05c1.67,0.1,3.24-1.18,4.66-3.88c-1.72,0.54-3.04,1.18-4.07,2.01 c-0.83,0.69-1.23,1.23-1.18,1.67C369.89,140.95,370.09,141,370.48,141.05z M377.3,107.24c-0.2-0.15-0.39-0.25-0.59-0.25 c-0.1,0-0.25,0.05-0.39,0.15c-1.13,0.59-2.26,2.6-3.43,6.08c-1.03,3.19-1.91,6.87-2.6,10.99c0.88-1.03,1.72-2.06,2.5-3.09 c1.03-1.37,1.96-2.65,2.75-3.88c2.01-3.24,2.99-5.79,2.9-7.7C378.38,108.57,377.99,107.78,377.3,107.24z"></path> <path class="st1" d="M393.54,140.36c-0.49,0.25-0.98,0.34-1.42,0.34c-0.39,0-0.78-0.05-1.13-0.2c-0.54-0.25-0.98-0.64-1.28-1.23 c-0.54-1.32-0.39-3.58,0.44-6.87c-2.4,2.85-4.27,4.17-5.69,3.97c-0.15,0-0.25-0.05-0.39-0.1c-0.25-0.05-0.39-0.2-0.54-0.34 c-0.44-0.34-0.74-0.93-0.79-1.67c-0.2-1.62,0.25-3.63,1.37-5.94c1.13-2.4,2.4-3.88,3.73-4.42c0.25-0.05,0.44-0.1,0.69-0.15 c0.25-0.05,0.54-0.05,0.78,0c0.74,0.15,1.32,0.54,1.86,1.28c0.34,0.44,0.25,0.83-0.2,1.18s-0.83,0.29-1.18-0.15 c-0.39-0.54-0.83-0.74-1.32-0.54c-0.98,0.39-1.96,1.62-2.9,3.68c-0.93,2.01-1.32,3.63-1.18,4.86l0.05,0.2l0.05,0.2 c0.05,0.15,0.15,0.2,0.2,0.25c0.64,0.05,1.67-0.69,3.19-2.31c1.42-1.52,2.75-3.34,4.02-5.35c0.29-0.44,0.69-0.54,1.13-0.29 c0.44,0.25,0.59,0.59,0.39,1.08c-0.78,1.96-1.42,3.93-1.86,5.84c-0.54,2.4-0.64,4.07-0.29,4.91c0.05,0.1,0.15,0.2,0.2,0.25 l0.1,0.05l0.05,0.05c0.34,0.15,0.74,0.1,1.18-0.1c1.13-0.54,2.36-2.01,3.68-4.46c0.49-0.93,0.98-1.91,1.42-2.99 c0.34-0.83,0.64-1.62,0.88-2.31c0.2-0.54,0.54-0.69,1.08-0.54c0.54,0.2,0.74,0.54,0.54,1.08l-0.05,0.1l-0.05,0.15 c-0.05,0.15-0.1,0.29-0.15,0.44c-0.15,0.34-0.29,0.74-0.44,1.18c-0.44,1.13-0.93,2.21-1.47,3.24 C396.68,137.76,395.11,139.63,393.54,140.36z"></path> <path class="st1" d="M409.63,145.32c-1.37-0.2-2.11-1.52-2.26-3.93c-0.1-1.47,0.1-4.27,0.59-8.34l0.2-1.82l0.2-1.82 c0.15-1.33,0.2-2.36,0.2-3.19c0-0.98-0.05-1.72-0.2-2.26c-0.05-0.15-0.15-0.29-0.2-0.39l-0.05-0.15l-0.1-0.05 c-0.44,0.15-1.18,1.28-2.21,3.34c-0.39,0.78-0.83,1.72-1.28,2.75c-0.15,0.44-0.34,0.88-0.54,1.32l-0.29,0.64l-0.25,0.59 c-1.18,2.8-2.01,4.61-2.45,5.4c-0.64,1.03-1.23,1.47-1.86,1.42c-0.34-0.05-0.64-0.2-0.88-0.54c-0.54-0.74-0.54-2.6-0.1-5.64 c0.15-1.13,0.39-2.36,0.69-3.73c0.25-0.98,0.49-2.01,0.74-3.04c0.15-0.54,0.49-0.79,1.03-0.64c0.54,0.15,0.74,0.49,0.59,1.03 c-1.18,4.76-1.72,8.19-1.67,10.26c0.29-0.49,0.69-1.28,1.13-2.36l0.64-1.42l0.29-0.74l0.29-0.69c1.62-3.78,2.8-6.28,3.58-7.51 c1.08-1.72,2.11-2.4,3.14-2.06c1.03,0.39,1.57,1.57,1.67,3.58c0.05,1.42-0.15,4.07-0.59,7.9l-0.25,2.01l-0.2,1.96 c-0.15,1.42-0.2,2.6-0.2,3.48c0.05,1.13,0.15,1.91,0.34,2.45c0.05,0.15,0.15,0.29,0.25,0.34l0.15,0.1h0.2 c0.05,0,0.15-0.05,0.25-0.1c0.25-0.15,0.59-0.39,0.93-0.74c1.03-1.13,2.26-3.19,3.68-6.13c0.74-1.62,1.52-3.39,2.26-5.3 c0.25-0.59,0.49-1.18,0.69-1.77c0.05-0.15,0.15-0.34,0.2-0.49l0.05-0.15v-0.05c0.2-0.54,0.59-0.69,1.13-0.49 c0.54,0.2,0.69,0.54,0.49,1.08v0.05l-0.05,0.15c-0.05,0.15-0.15,0.34-0.2,0.49c-0.25,0.59-0.44,1.18-0.69,1.82 c-0.79,1.96-1.57,3.78-2.36,5.4c-1.47,3.09-2.8,5.25-3.93,6.53c-0.88,0.93-1.72,1.42-2.5,1.42H409.63z"></path> <path class="st1" d="M431.66,142.77c-0.49,0-0.93-0.1-1.32-0.34c-0.54-0.34-1.03-0.83-1.37-1.57c-1.08-2.11-1.37-5.84-0.93-11.14 c-3.97,4.37-7.07,6.53-9.23,6.53c-0.25,0-0.44,0-0.59-0.05c-0.15-0.05-0.29-0.1-0.44-0.15c-0.15-0.1-0.29-0.2-0.44-0.34 c-0.34-0.39-0.54-0.93-0.59-1.57c-0.15-1.57,0.44-3.53,1.67-5.94c1.32-2.45,2.7-3.97,4.12-4.61c1.28-0.54,2.36-0.29,3.29,0.74 c0.39,0.44,0.39,0.83-0.05,1.23c-0.44,0.39-0.83,0.39-1.23-0.05c-0.34-0.44-0.78-0.59-1.32-0.34c-1.08,0.44-2.16,1.77-3.29,3.93 c-1.08,2.06-1.57,3.73-1.47,4.96c0,0.15,0,0.25,0.05,0.34c0.05,0.1,0.05,0.15,0.1,0.15c0.64,0.15,1.77-0.34,3.29-1.47 c1.77-1.33,3.73-3.19,5.94-5.64l0.54-0.69c0.1-0.69,0.2-1.37,0.29-2.11c0.1-0.54,0.2-1.08,0.29-1.57 c0.64-3.48,1.42-6.62,2.4-9.52c1.13-3.48,2.36-5.79,3.58-7.02c0.64-0.59,1.23-0.93,1.87-0.98c0.25-0.05,0.49,0,0.74,0.05 c0.2,0.05,0.39,0.15,0.54,0.2c0.88,0.49,1.42,1.23,1.67,2.26c0.29,1.37,0,3.19-0.83,5.4c-1.62,4.17-4.56,8.83-8.88,14.03 c-0.83,6.23-0.69,10.45,0.44,12.66c0.25,0.44,0.49,0.74,0.83,0.88c0.1,0.05,0.2,0.1,0.34,0.1h0.15l0.1-0.05 c0.74-0.1,1.91-1.47,3.63-4.07c1.62-2.4,3.14-5.15,4.66-8.24c0.25-0.49,0.64-0.59,1.13-0.34c0.54,0.25,0.64,0.59,0.39,1.13 c-0.25,0.44-0.44,0.93-0.69,1.37c-0.34,0.64-0.64,1.28-0.98,1.86c-0.88,1.62-1.72,3.04-2.5,4.32c-2.26,3.58-4.02,5.45-5.35,5.69 H431.66z M437.01,107.24c-0.25,0-0.49,0.15-0.83,0.49c-2.21,2.16-4.12,7.61-5.64,16.34c3.29-4.17,5.54-7.95,6.82-11.24 c0.15-0.54,0.29-1.03,0.44-1.47c0.2-0.59,0.29-1.13,0.34-1.62c0.15-1.28-0.15-2.11-0.83-2.45l-0.15-0.05H437.01z"></path> <path class="st1" d="M447.07,135.85c-2.16,2.85-3.93,4.27-5.35,4.27c-0.25,0-0.44-0.05-0.64-0.1c-0.64-0.25-1.18-0.64-1.62-1.18 c-0.59-0.74-0.93-1.72-0.98-2.94c-0.15-2.01,0.34-4.22,1.37-6.62c1.03-2.4,2.16-3.93,3.39-4.51c0.83-0.44,1.57-0.34,2.21,0.2 c0.44,0.39,0.69,0.79,0.83,1.23c0.1,0.34,0.1,0.69,0.05,1.03c-0.15,0.98-0.93,2.01-2.4,3.04c-0.54,0.34-1.13,0.74-1.82,1.08 c-0.25,0.15-0.54,0.25-0.78,0.39c-0.25,0.15-0.44,0.25-0.64,0.34c-0.39,1.37-0.54,2.6-0.49,3.73c0.1,1.42,0.59,2.26,1.47,2.6 c0.59,0.2,1.67-0.64,3.24-2.55c1.57-1.91,3.14-4.27,4.66-6.97c0.25-0.54,0.64-0.64,1.13-0.34c0.54,0.25,0.64,0.64,0.34,1.18 c-0.2,0.34-0.39,0.74-0.64,1.18c-0.34,0.49-0.64,0.98-0.93,1.52C448.64,133.69,447.85,134.82,447.07,135.85z M444.32,126.28 c-0.05-0.05-0.05-0.05-0.1-0.05c-0.05,0-0.15,0-0.25,0.05c-0.78,0.39-1.62,1.52-2.45,3.43c1.96-1.13,2.99-2.06,3.14-2.8v-0.25 C444.62,126.53,444.47,126.43,444.32,126.28z"></path> <path class="st1" d="M455.56,142.23c-0.54-0.05-1.03-0.34-1.37-0.83c-0.64-0.93-0.69-2.8-0.2-5.64c0.15-1.13,0.39-2.31,0.74-3.63 c0.25-1.03,0.54-2.06,0.88-3.19c-2.31-0.64-4.07-1.86-5.3-3.73c-1.03-1.62-1.42-3.19-1.18-4.71c0.15-1.03,0.54-1.77,1.18-2.31 c0.64-0.54,1.42-0.78,2.35-0.69c0.69,0.05,1.18,0.39,1.52,0.98l0.15,0.2c0.05,0.15,0.05,0.25,0.1,0.34 c0.1,0.34,0.15,0.78,0.1,1.23c-0.05,1.33-0.59,3.09-1.57,5.4c1.08,0.93,2.36,1.57,3.88,1.86c0.25,0.05,0.44,0.15,0.59,0.39 c0.15,0.2,0.15,0.44,0.1,0.69c-2.11,6.62-2.75,10.6-1.91,11.87c0.05,0.05,0.05,0.05,0.1,0.05c0.54-0.15,1.57-1.47,3.09-3.93 c1.42-2.31,2.85-4.86,4.22-7.7c0.25-0.49,0.59-0.64,1.13-0.39c0.54,0.25,0.64,0.64,0.39,1.18v0.05l-0.1,0.1 c-0.05,0.15-0.1,0.25-0.2,0.39c-0.25,0.44-0.44,0.93-0.69,1.42c-0.83,1.52-1.57,2.94-2.31,4.22c-2.5,4.27-4.32,6.38-5.55,6.38 H455.56z M452.27,119.22c-0.44,0-0.83,0.15-1.08,0.49c-0.2,0.25-0.29,0.59-0.34,1.03c-0.2,1.13,0.1,2.26,0.88,3.48 c0.64-1.57,0.98-2.85,1.08-3.78c0.05-0.34,0.05-0.59,0-0.79l-0.05-0.2l-0.05-0.15l-0.05-0.05c-0.05-0.05-0.1-0.05-0.2-0.05 H452.27z"></path> <path class="st1" d="M472.78,140.36c-0.49,0.25-0.98,0.34-1.42,0.34c-0.39,0-0.78-0.05-1.13-0.2c-0.54-0.25-0.98-0.64-1.28-1.23 c-0.54-1.32-0.39-3.58,0.44-6.87c-2.4,2.85-4.27,4.17-5.69,3.97c-0.15,0-0.25-0.05-0.39-0.1c-0.25-0.05-0.39-0.2-0.54-0.34 c-0.44-0.34-0.74-0.93-0.79-1.67c-0.2-1.62,0.25-3.63,1.37-5.94c1.13-2.4,2.4-3.88,3.73-4.42c0.25-0.05,0.44-0.1,0.69-0.15 c0.25-0.05,0.54-0.05,0.78,0c0.74,0.15,1.32,0.54,1.86,1.28c0.34,0.44,0.25,0.83-0.2,1.18c-0.44,0.34-0.83,0.29-1.18-0.15 c-0.39-0.54-0.83-0.74-1.32-0.54c-0.98,0.39-1.96,1.62-2.9,3.68c-0.93,2.01-1.32,3.63-1.18,4.86l0.05,0.2l0.05,0.2 c0.05,0.15,0.15,0.2,0.2,0.25c0.64,0.05,1.67-0.69,3.19-2.31c1.42-1.52,2.75-3.34,4.02-5.35c0.29-0.44,0.69-0.54,1.13-0.29 c0.44,0.25,0.59,0.59,0.39,1.08c-0.78,1.96-1.42,3.93-1.86,5.84c-0.54,2.4-0.64,4.07-0.29,4.91c0.05,0.1,0.15,0.2,0.2,0.25 l0.1,0.05l0.05,0.05c0.34,0.15,0.74,0.1,1.18-0.1c1.13-0.54,2.36-2.01,3.68-4.46c0.49-0.93,0.98-1.91,1.42-2.99 c0.34-0.83,0.64-1.62,0.88-2.31c0.2-0.54,0.54-0.69,1.08-0.54c0.54,0.2,0.74,0.54,0.54,1.08l-0.05,0.1l-0.05,0.15 c-0.05,0.15-0.1,0.29-0.15,0.44c-0.15,0.34-0.29,0.74-0.44,1.18c-0.44,1.13-0.93,2.21-1.47,3.24 C475.92,137.76,474.35,139.63,472.78,140.36z"></path> </g> </g> <g> <polygon class="st0" points="681.69,25.62 670.68,25.62 668.34,39.56 674.28,39.56 "></polygon> <path class="st0" d="M693.88,74.27c0,0-3.31,6.83-7.61,6.83c-3.31,0-4.09-1.85-3.31-7.12l4.78-30.22h-11.02l-4.97,31.3 c-0.97,1.66-3.8,6.04-7.31,6.04c-3.31,0-6.34-2.83-4.78-12.97l3.9-24.37l1.23-10.56c1.13-9.63-7.4-17.64-16.93-15.85 c-0.06,0.01-0.09,0.02-0.09,0.02l-27.61,6.34c-31.2,6.55-39.18-5.28-39.18-5.28c-6.89,14.64,7.4,16.7,7.4,16.7 c10.56,1.91,33.39-4.86,33.39-4.86l21.77-6.56c0.1-0.02,0.19-0.05,0.28-0.07c5.69-1.33,10.93,3.48,10.16,9.27l-1.45,10.85 l-4.29,26.62c-2.05,13.26,2.83,18.82,9.85,18.82c6.24,0,10.53-4.68,13.07-8.58c-0.1,5.26,1.95,8.58,7.51,8.58 c11.02,0,17.06-14.33,17.06-14.33L693.88,74.27z"></path> </g> <path class="st0" d="M183.35,123.38l-90.32,5.17c-4.77,0.27-8.58-3.93-7.83-8.65l0.31-1.96l4.49-28.47c2.05,0,4.19-0.1,6.43-0.29 c9.75-1.17,17.26-7.12,21.16-18.13c3.12,0,6.92-1.46,11.02-5.36l-1.07-1.56c0,0-3.32,3.41-8.19,3.41c-0.29,0-0.49,0-0.68,0 c0.39-1.46,0.68-3.02,0.97-4.68c0.2-1.66,0.29-3.22,0.29-4.68c0-7.61-3.9-15.01-11.99-15.01c-4.68,0-8.58,2.05-11.5,4.97l0.68-4.39 H86.09L78.97,88.6l-4.58,29.35l0,0c-1.38,8.83,5.45,16.81,14.38,16.81h26.77c0,0,68.8-4.08,81,1.88 C196.55,136.63,199.7,121.84,183.35,123.38z M95.16,56.33c0.78-3.71,3.32-6.73,7.7-6.73c4.09,0,5.85,3.41,5.85,8 c0,0.88,0,1.76-0.1,2.83c-1.66,0.78-3.12,2.44-3.41,4.39c-0.29,1.85,0.58,3.51,2.05,4.19c-2.53,9.65-7.31,13.55-10.92,14.23 c-1.95,0.29-3.8,0.1-5.36-0.19L95.16,56.33z"></path> <rect x="498.56" y="126.03" width="197.18" height="7.37"></rect> </g> </svg> 