<?xml version="1.0" encoding="UTF-8"?>
<svg width="1171px" height="272px" viewBox="0 0 1171 272" version="1.1" xmlns="http://www.w3.org/2000/svg" xmlns:xlink="http://www.w3.org/1999/xlink">
    <title>Brand/Logo Color@1x</title>
    <defs>
        <polygon id="path-1" points="1.13686838e-13 0 146.068999 0 146.068999 263.473606 1.13686838e-13 263.473606"></polygon>
    </defs>
    <g id="Symbols" stroke="none" stroke-width="1" fill="none" fill-rule="evenodd">
        <g id="Group-12">
            <path d="M1019.3438,221.1026 C1025.6848,220.9956 1031.9128,220.7826 1038.1338,220.2846 C1046.3548,219.6246 1054.4868,218.4496 1062.4658,216.3326 C1071.8488,213.8436 1080.5198,209.9446 1087.9268,203.5066 C1097.1818,195.4636 1102.4018,185.5906 1102.0428,173.0936 C1101.9538,169.9796 1102.0758,166.8606 1102.0188,163.7446 C1101.9368,159.2476 1102.9678,159.5666 1097.7028,159.9396 C1087.9768,160.6306 1078.2578,161.4266 1068.5338,162.1496 C1058.9688,162.8606 1049.4008,163.5246 1039.8348,164.2286 C1029.4728,164.9916 1019.1108,165.7626 1008.7508,166.5596 C1003.4138,166.9696 998.0688,167.3326 992.8138,168.4436 C986.5108,169.7756 980.5208,171.8026 975.1498,175.5316 C963.1698,183.8516 961.4408,205.1146 976.6418,213.8106 C981.0078,216.3076 985.6958,217.7866 990.5738,218.7676 C1000.1038,220.6846 1009.7668,221.0126 1019.3438,221.1026 L1019.3438,221.1026 Z M981.8878,271.9636 C981.7378,270.8756 980.8298,271.1896 980.2218,271.1546 C974.3088,270.8186 968.4288,270.1766 962.5938,269.1786 C949.0208,266.8586 936.0128,262.9226 924.1218,255.7516 C910.5408,247.5616 901.9108,235.7256 898.2668,220.3676 C894.8288,205.8786 894.9578,191.3936 899.2348,177.0396 C901.5858,169.1506 905.9718,162.4506 911.2508,156.2356 C920.8588,144.9256 933.2728,137.9486 946.9638,132.8986 C956.4558,129.3976 966.3298,127.4576 976.2638,125.7756 C988.1758,123.7586 1000.1888,122.6716 1012.2308,121.7906 C1025.3048,120.8356 1038.3658,119.6976 1051.4338,118.6666 C1060.5188,117.9506 1069.6078,117.2976 1078.6928,116.5826 C1082.7578,116.2636 1086.8128,115.8296 1090.7568,114.7196 C1091.8318,114.4166 1092.9008,114.0706 1093.9348,113.6516 C1098.5398,111.7846 1101.0138,108.2956 1101.3838,103.3986 C1101.6918,99.3336 1101.8238,95.2286 1101.1838,91.1946 C1100.1648,84.7656 1096.7928,79.6406 1091.9058,75.4176 C1086.5478,70.7866 1080.1788,68.3666 1073.4128,66.7826 C1066.3858,65.1376 1059.2348,64.3536 1052.0498,63.9356 C1042.6228,63.3876 1033.1858,63.2736 1023.7578,63.9196 C1012.5588,64.6876 1001.5168,66.3216 990.8938,70.1476 C982.9498,73.0076 976.1458,77.4046 971.3438,84.5276 C968.9978,88.0076 967.3578,91.8006 966.2348,95.8326 C965.7128,97.7056 965.6858,97.7366 963.8428,97.7376 C944.2478,97.7476 924.6538,97.7486 905.0588,97.7376 C902.9608,97.7366 902.8598,97.6276 903.2468,95.2696 C904.9618,84.8276 907.7308,74.6926 911.9828,64.9716 C922.1288,41.7766 939.6558,26.4996 962.9268,17.3306 C974.0588,12.9456 985.6058,10.1496 997.3918,8.2536 C1011.7158,5.9496 1026.1578,5.0936 1040.6398,5.05741119 C1057.2908,5.0166 1073.8708,6.0816 1090.2738,9.1886 C1103.3068,11.6566 1115.8458,15.5156 1127.5378,21.9186 C1148.3918,33.3386 1161.1968,50.8796 1167.0618,73.6966 C1169.8028,84.3556 1170.9168,95.2326 1170.9248,106.2136 C1170.9618,152.1706 1170.9488,198.1266 1170.95576,244.0836 C1170.95576,249.6776 1170.9598,255.2726 1170.9508,260.8676 C1170.9468,263.1666 1170.9318,263.2006 1168.7718,263.2016 C1147.0978,263.2096 1125.4238,263.2096 1103.7498,263.2026 C1101.5578,263.2016 1101.5378,263.1726 1101.5348,260.8916 C1101.5268,251.3006 1101.5368,241.7096 1101.5238,232.1186 C1101.5228,231.2576 1101.6868,230.3756 1101.3648,229.5256 C1100.5978,229.3126 1100.3738,229.9706 1100.0938,230.3716 C1088.2488,247.3406 1071.0968,256.7786 1052.2888,263.6926 C1041.1218,267.7976 1029.3958,269.5456 1017.5768,270.6086 C1015.1088,270.8306 1012.6318,270.9556 1010.1628,271.1666 C1009.6138,271.2136 1008.8208,270.9906 1008.7628,271.9636 L981.8878,271.9636 Z" id="Fill-1" fill="#FF0098"></path>
            <path d="M0,4.3545 C1.113,4.3805 2.227,4.4295 3.34,4.4295 C95.959,4.4325 188.579,4.4305 281.198,4.4385 C284.622,4.4385 284.419,3.9395 284.42208,7.6405 C284.42208,25.7045 284.42208,43.7685 284.42208,61.8325 C284.42208,62.1525 284.42208,62.4715 284.42208,62.7915 C284.396,65.1345 284.396,65.1535 282.009,65.1545 C264.333,65.1605 246.657,65.1575 228.981,65.1575 C212.664,65.1575 196.348,65.1545 180.031,65.1615 C176.675,65.1625 176.892,64.8285 176.892,68.2275 C176.891,131.6915 176.894,195.1545 176.885,258.6185 C176.884,262.4005 177.352,261.9535 173.599,261.9555 C152.963,261.9709 132.328,261.9615 111.692,261.9615 C111.213,261.9615 110.732,261.9709 110.253,261.9595 C108.468,261.9155 108.464,261.9125 108.429,260.0575 C108.417,259.4185 108.427,258.7785 108.427,258.1395 C108.427,194.9155 108.428,131.6915 108.422,68.4675 C108.422,64.7895 108.838,65.1645 105.068,65.1615 C70.276,65.1415 35.484,65.1305 0.692,65.1235 C0.462,65.1235 0.231,65.2135 0,65.2625 C0,44.9595 0,24.6575 0,4.3545" id="Fill-3" fill="#D100C1"></path>
            <path d="M572.5059,37.1083 C575.1289,33.5823 577.9709,30.2513 581.1409,27.2133 C593.0359,15.8133 607.0619,8.6533 623.4049,6.2833 C639.3519,3.9703 654.9079,5.4783 669.5419,12.4953 C693.4189,23.9443 707.9729,42.7943 713.1699,68.7873 C714.1449,73.6613 714.467344,78.6003 714.467344,83.5633 C714.467344,142.3083 714.467344,201.0533 714.467344,259.7973 C714.467344,259.9573 714.467344,260.1173 714.467344,260.2773 C714.4469,262.6363 714.4469,262.6593 712.0879,262.6603 C692.3329,262.6663 672.5789,262.6663 652.8239,262.6613 C650.3139,262.6603 650.3079,262.6433 650.3079,259.9513 C650.3069,225.5833 650.3079,191.2163 650.3069,156.8483 C650.3069,139.5043 650.3389,122.1613 650.2909,104.8173 C650.2599,93.8903 646.3899,84.4303 638.4899,76.9073 C627.5939,66.5293 614.5659,63.1573 600.1569,67.4133 C585.6529,71.6973 576.6719,81.7123 573.0069,96.4013 C572.1699,99.7533 572.0439,103.1853 572.0449,106.6343 C572.0609,157.4663 572.0609,208.2983 572.0449,259.1303 C572.0439,262.9873 572.7409,262.6583 568.4499,262.6603 C549.3359,262.670349 530.2209,262.6643 511.1059,262.6643 C510.4659,262.6643 509.8259,262.6813 509.1869,262.6583 C507.3839,262.5953 507.3809,262.5883 507.3379,260.7163 C507.3269,260.2363 507.3359,259.7573 507.3359,259.2773 C507.3359,175.7563 507.3339,92.2353 507.3419,8.7133 C507.3429,4.9113 506.8749,5.3903 510.6369,5.3873 C530.2309,5.3723 549.8259,5.3793 569.4199,5.3823 C572.2219,5.3833 572.0279,5.1523 572.0289,7.9513 C572.0319,16.8233 572.0299,25.6953 572.0299,34.5663 L572.0299,36.9323 C572.1889,36.9903 572.3469,37.0493 572.5059,37.1083" id="Fill-5" fill="#FEA100"></path>
            <path d="M311.5786,156.1854 L314.6726,156.1854 C348.0116,156.1854 381.3506,156.1854 414.6906,156.1854 C415.2496,156.1854 415.8096,156.1644 416.3686,156.1834 C417.3866,156.2164 417.6166,155.6914 417.3786,154.8124 C417.3156,154.5814 417.2386,154.3534 417.1856,154.1204 C408.5476,116.3914 399.9116,78.6634 391.2736,40.9344 C390.8396,39.0394 390.3906,37.1474 389.8246,34.7264 C363.6316,75.3854 337.7536,115.5554 311.5786,156.1854 M490.3696,262.0794 C489.5506,262.5734 488.7326,262.3804 487.9526,262.3804 C473.5566,262.3934 459.1606,262.3904 444.7636,262.3894 C444.4436,262.3894 444.1216,262.3644 443.8046,262.3924 C442.6656,262.4934 442.1046,262.0604 441.8486,260.8624 C441.0156,256.9604 440.0396,253.0884 439.1396,249.2004 C435.4286,233.1794 431.7256,217.1574 428.0186,201.1364 C427.4796,198.8104 427.4756,198.8004 425.0276,198.8004 C378.8796,198.7984 332.7316,198.8104 286.5836,198.7554 C284.7356,198.7534 283.7206,199.3594 282.7426,200.8844 C270.1106,220.6014 257.3896,240.2614 244.7656,259.9834 C243.6596,261.7104 242.5516,262.4644 240.4006,262.449619 C225.0456,262.3384 209.6896,262.3904 194.3336,262.3904 L191.6606,262.3904 C191.5536,261.2394 192.2636,260.6194 192.7166,259.9294 C203.6816,243.2264 214.6636,226.5354 225.6426,209.8424 C270.0876,142.2674 314.5326,74.6924 358.9776,7.1184 C359.3296,6.5834 359.7176,6.0694 360.0226,5.5104 C360.5036,4.6304 361.2076,4.3144 362.1936,4.3734 C363.2296,4.4364 364.2726,4.3864 365.3116,4.3864 C385.3866,4.3864 405.4616,4.3864 425.5356,4.3864 C426.0956,4.3864 426.6596,4.4314 427.2146,4.3784 C428.4016,4.2654 428.8706,4.7964 429.1306,5.9504 C430.1646,10.5444 431.3136,15.1124 432.4126,19.6924 C441.1456,56.0954 449.8846,92.4974 458.6086,128.9024 C468.7656,171.2874 478.9116,213.6744 489.0506,256.0634 C489.5296,258.0654 490.1866,260.0354 490.3696,262.0794" id="Fill-7" fill="#FF5400"></path>
            <g id="Group-11" transform="translate(736.489277, 0.000000)">
                <mask id="mask-2" fill="white">
                    <use xlink:href="#path-1"></use>
                </mask>
                <g id="Clip-10"></g>
                <path d="M35.5571228,151.3484 C35.5571228,134.6464 35.5541228,117.9434 35.5601228,101.2414 C35.5611228,97.9564 35.5731228,98.2814 32.5231228,98.2794 C22.7671228,98.2744 13.0111228,98.2774 3.25412277,98.2774 C2.69512277,98.2774 2.13212277,98.2424 1.57612277,98.2814 C0.462122767,98.3614 -0.0518772334,97.9134 0.00412276659,96.7594 C0.0581227666,95.6434 0.0131227666,94.5224 0.0131227666,93.4034 C0.0131227666,81.9754 0.0131227666,70.5474 0.0131227666,59.1194 C0.0131227666,58.6404 0.00312276659,58.1604 0.0151227666,57.6814 C0.0611227666,55.7974 0.0631227666,55.7944 1.84912277,55.7414 C2.32812277,55.7264 2.80812277,55.7384 3.28812277,55.7384 C13.4441228,55.7384 23.6001228,55.7384 33.7561228,55.7374 C34.3161228,55.7374 34.8771228,55.7094 35.4351228,55.7374 C36.3461228,55.7814 36.7521228,55.3774 36.7091228,54.4644 C36.6791228,53.8264 36.7091228,53.1864 36.7091228,52.5464 C36.7091228,36.0844 36.7091228,19.6214 36.7101228,3.1584 C36.7101228,2.5194 36.7371228,1.8794 36.7111228,1.2414 C36.6731228,0.2924 37.1671228,-0.0356 38.0421228,0.0024 C38.5211228,0.0234 39.0011228,-0.00052427604 39.4811228,-0.00052427604 C53.4761228,-0.00052427604 67.4701228,-0.00052427604 81.4651228,-0.00052427604 C81.9451228,-0.00052427604 82.4251228,0.0254 82.9041228,0.0034 C83.8101228,-0.0376 84.2251228,0.3744 84.1911228,1.2824 C84.1671228,1.9204 84.1911228,2.5604 84.1911228,3.2004 C84.1921228,19.7424 84.1881228,36.2854 84.1961228,52.8274 C84.1971228,56.0574 83.8721228,55.7334 87.2001228,55.7344 C105.753123,55.7424 124.306123,55.7384 142.858123,55.7384 C143.498123,55.7384 144.139123,55.7674 144.777123,55.7354 C145.681123,55.6914 146.115123,56.0694 146.065123,56.9934 C146.039123,57.4714 146.063123,57.9524 146.063123,58.4314 C146.064123,70.8184 146.064123,83.2054 146.063123,95.5924 C146.063123,96.0724 146.040123,96.5524 146.064123,97.0314 C146.110123,97.9694 145.632123,98.3114 144.751123,98.2774 C144.112123,98.2534 143.471123,98.2774 142.832123,98.2774 C124.359123,98.2774 105.886123,98.2774 87.4131228,98.2774 C86.7731228,98.2774 86.1331228,98.3004 85.4941228,98.2794 C84.5941228,98.2504 84.1601228,98.6504 84.1951228,99.5624 C84.2141228,100.0414 84.1921228,100.5214 84.1921228,101.0004 C84.1931228,129.6104 84.1801228,158.2204 84.2061228,186.8304 C84.2111228,192.9874 84.5391228,199.1284 85.9981228,205.1484 C88.0601228,213.6604 91.5151228,218.1944 102.353123,220.1984 C106.065123,220.8854 109.830123,220.9364 113.584123,220.9614 C121.821123,221.0164 130.058123,220.9784 138.294123,220.9794 C138.854123,220.9794 139.415123,221.0004 139.974123,220.9804 C140.883123,220.9484 141.294123,221.3694 141.250123,222.2754 C141.227123,222.7544 141.252123,223.2344 141.252123,223.7144 C141.252123,236.1014 141.252123,248.4884 141.252123,260.8754 C141.252123,261.1944 141.214123,261.5194 141.258123,261.8334 C141.444123,263.1664 140.746123,263.4264 139.579123,263.4194 C124.146123,263.3234 108.707123,263.7134 93.2811228,263.2094 C83.9891228,262.9054 74.8501228,261.4044 66.0681228,258.1034 C53.9181228,253.5354 45.7921228,245.1204 41.4651228,232.9264 C38.9671228,225.8874 37.5301228,218.6304 36.6261228,211.2384 C35.6051228,202.8874 35.5491228,194.5024 35.5551228,186.1114 C35.5631228,174.5244 35.5571228,162.9364 35.5571228,151.3484" id="Fill-9" fill="#D100C1" mask="url(#mask-2)"></path>
            </g>
        </g>
    </g>
</svg>